<svg width="96" height="96" viewBox="0 0 96 96" fill="none" xmlns="http://www.w3.org/2000/svg" role="img" aria-label="Xianyu">
  <rect width="96" height="96" rx="24" fill="#B7E7C8"/>
  <path d="M20 49C29.5 34.5 45.7 28.5 61 34.1C70.4 37.6 77.1 45 82 50.8C76.7 57.6 69.5 65.5 58.7 68.2C43.7 72 28.3 64.8 20 49Z" fill="#173F2A"/>
  <path d="M29.4 49.2C37 39.8 48.3 36.3 58.7 40.4C64.2 42.6 68.7 46.5 72.3 50.7C68.2 55.3 63.2 59.9 56.4 61.6C46.2 64.2 35.7 59.5 29.4 49.2Z" fill="#EEF8F1"/>
  <circle cx="59.5" cy="47" r="4.5" fill="#173F2A"/>
  <path d="M18 35C24.7 36.1 30.1 39.9 33.7 45.8L20 49L18 35Z" fill="#173F2A"/>
  <path d="M18.5 63.5C25.1 62.2 30.4 58.1 33.8 52L20 49L18.5 63.5Z" fill="#173F2A"/>
  <path d="M70 34.5C78.2 30.2 84.1 29.8 88 33.3C84.9 37.6 80.7 43 77.1 48.2" stroke="#173F2A" stroke-width="5" stroke-linecap="round"/>
  <path d="M39 55.5C44.9 58.4 51.5 58.7 58 56.3" stroke="#173F2A" stroke-width="4" stroke-linecap="round"/>
</svg>
